<svg version="1.0" xmlns="http://www.w3.org/2000/svg" width="512.000000ptpx" height="512.000000ptpx" viewBox="0 0 512.000000 512.000000" preserveAspectRatio="xMidYMid meet" transform="rotate(0) scale(1, 1)">

<g transform="translate(0.000000,512.000000) scale(0.100000,-0.100000)" fill="#faebd7" stroke="none">
<path d="M2321 4589 c-802 -84 -1488 -642 -1740 -1414 -78 -237 -107 -450 -97&#10;-705 8 -210 22 -286 57 -313 31 -22 62 -17 84 16 12 19 12 36 0 122 -17 118&#10;-19 356 -5 475 82 662 483 1221 1082 1510 726 350 1593 211 2171 -349 176&#10;-170 286 -321 393 -536 192 -389 247 -824 159 -1248 -210 -1014 -1189 -1681&#10;-2212 -1507 -387 66 -720 234 -1005 509 -133 128 -191 197 -293 350 -58 88&#10;-75 107 -98 109 -36 4 -67 -22 -67 -57 0 -55 165 -286 314 -440 323 -331 721&#10;-536 1181 -607 147 -22 441 -22 585 0 674 106 1237 511 1543 1113 149 292 218&#10;587 218 929 0 330 -68 620 -212 909 -386 771 -1205 1223 -2058 1134z"/>
<path d="M2450 3621 c-153 -22 -273 -83 -386 -195 -141 -141 -199 -279 -199&#10;-476 0 -132 22 -221 82 -329 43 -78 152 -194 225 -240 l55 -35 -58 -27 c-289&#10;-137 -486 -420 -506 -727 -7 -104 5 -132 57 -132 45 0 62 30 71 128 17 183 83&#10;325 214 458 91 92 181 149 300 191 74 25 92 27 230 27 134 0 158 -3 227 -26&#10;229 -77 401 -243 481 -465 25 -69 47 -184 47 -246 0 -39 25 -67 61 -67 73 1&#10;83 72 38 267 -34 152 -115 296 -231 412 -74 75 -125 111 -230 166 l-78 41 73&#10;51 c117 81 197 186 250 328 39 103 49 272 23 375 -51 203 -189 373 -369 459&#10;-114 54 -262 78 -377 62z m263 -154 c90 -33 149 -70 212 -132 104 -104 156&#10;-233 156 -387 1 -211 -110 -392 -298 -485 -218 -109 -465 -69 -635 102 -216&#10;218 -210 569 12 779 152 143 366 191 553 123z"/>
</g>
</svg>